<?xml version="1.0" encoding="UTF-8" standalone="no"?>
<svg
   version="1.1"
   width="512"
   height="512"
   id="svg650"
   sodipodi:docname="logo.svg"
   inkscape:version="1.2.2 (b0a8486541, 2022-12-01)"
   xml:space="preserve"
   inkscape:export-filename="logo.png"
   inkscape:export-xdpi="76.8"
   inkscape:export-ydpi="76.8"
   xmlns:inkscape="http://www.inkscape.org/namespaces/inkscape"
   xmlns:sodipodi="http://sodipodi.sourceforge.net/DTD/sodipodi-0.dtd"
   xmlns="http://www.w3.org/2000/svg"
   xmlns:svg="http://www.w3.org/2000/svg"><defs
     id="defs654"><linearGradient
       id="linearGradient30313"
       inkscape:swatch="gradient"><stop
         style="stop-color:#1b0000;stop-opacity:1;"
         offset="0"
         id="stop30309" /><stop
         style="stop-color:#1b0000;stop-opacity:0;"
         offset="1"
         id="stop30311" /></linearGradient><linearGradient
       id="linearGradient30221"
       inkscape:swatch="solid"><stop
         style="stop-color:#1e3bc2;stop-opacity:1;"
         offset="0"
         id="stop30219" /></linearGradient><linearGradient
       id="linearGradient11705"
       inkscape:swatch="solid"><stop
         style="stop-color:#ffffff;stop-opacity:1;"
         offset="0"
         id="stop11703" /></linearGradient><linearGradient
       id="linearGradient11699"
       inkscape:swatch="solid"><stop
         style="stop-color:#e49ba6;stop-opacity:1;"
         offset="0"
         id="stop11697" /></linearGradient></defs><sodipodi:namedview
     id="namedview652"
     pagecolor="#505050"
     bordercolor="#eeeeee"
     borderopacity="1"
     inkscape:showpageshadow="0"
     inkscape:pageopacity="0"
     inkscape:pagecheckerboard="0"
     inkscape:deskcolor="#505050"
     showgrid="false"
     inkscape:zoom="1.4183568"
     inkscape:cx="135.36791"
     inkscape:cy="212.56993"
     inkscape:window-width="1895"
     inkscape:window-height="2033"
     inkscape:window-x="1930"
     inkscape:window-y="60"
     inkscape:window-maximized="1"
     inkscape:current-layer="svg650"
     showguides="true" /><path
     d="M0 0 C1.04970148 8.18829386 2.09327303 16.37733652 3.12921143 24.56738186 C3.61052221 28.3710714 4.09387262 32.17447766 4.58203125 35.97729492 C5.05380284 39.65306812 5.52002462 43.32950794 5.98254395 47.00645638 C6.15920007 48.40318541 6.33779283 49.79967102 6.51843262 51.19589043 C7.4639201 58.5138933 8.22616081 65.61796996 8 73 C2.11376326 73.85617989 -2.87678086 74 -9 74 C-10.65 61.46 -12.3 48.92 -14 36 C-16.6296875 39.58875 -16.6296875 39.58875 -19.3125 43.25 C-24.7937425 50.61088865 -30.61153893 57.40364324 -37 64 C-37.50112305 64.5269043 -38.00224609 65.05380859 -38.51855469 65.59667969 C-71.3023696 100.01457883 -116.14742622 121.41007771 -163 128 C-164.84464844 128.26151855 -164.84464844 128.26151855 -166.7265625 128.52832031 C-171.17183675 129.07462658 -175.5795423 129.19558765 -180.0546875 129.23828125 C-180.90528244 129.24812042 -181.75587738 129.25795959 -182.63224792 129.26809692 C-218.13714405 129.59383177 -250.4190169 124.9507491 -283 110 C-281.26017005 104.18738629 -279.1889511 99.16830006 -276 94 C-275.07703125 94.36351562 -274.1540625 94.72703125 -273.203125 95.1015625 C-222.23800755 114.87411588 -167.11323589 118.53903133 -115.93115234 96.68994141 C-87.48896858 84.0677732 -62.08398086 66.55299029 -41.625 42.9375 C-41.18591309 42.43307373 -40.74682617 41.92864746 -40.29443359 41.40893555 C-35.42101114 35.6065113 -31.26133745 29.25571856 -27 23 C-28.78615723 23.45439453 -28.78615723 23.45439453 -30.60839844 23.91796875 C-35.02776858 25.04091513 -39.44869467 26.15762541 -43.87011719 27.27246094 C-45.78330799 27.75578652 -47.69607297 28.24080094 -49.60839844 28.72753906 C-52.35762014 29.42697761 -55.1083173 30.1203231 -57.859375 30.8125 C-58.71368103 31.03123779 -59.56798706 31.24997559 -60.44818115 31.4753418 C-61.24870911 31.67554932 -62.04923706 31.87575684 -62.87402344 32.08203125 C-63.92659332 32.34850464 -63.92659332 32.34850464 -65.00042725 32.62036133 C-67 33 -67 33 -71 33 C-71.53414112 31.10787298 -72.05178329 29.21108364 -72.5625 27.3125 C-72.99755859 25.72888672 -72.99755859 25.72888672 -73.44140625 24.11328125 C-74.00851374 20.95254928 -73.71427767 19.07846829 -73 16 C-64.22340271 13.75369694 -55.44398577 11.51887331 -46.66076374 9.29861355 C-42.58236263 8.26727593 -38.50503941 7.23202561 -34.42993164 6.18774414 C-30.49652511 5.17992937 -26.56061554 4.18251025 -22.62276268 3.19221687 C-21.12154732 2.81275865 -19.62126816 2.42957638 -18.12197304 2.04260063 C-16.0202844 1.50082415 -13.91564365 0.97243674 -11.80981445 0.44702148 C-10.61290482 0.1427977 -9.41599518 -0.16142609 -8.18281555 -0.47486877 C-5.05056311 -0.99165762 -3.02657628 -0.86146343 0 0 Z "
     fill="#000000"
     id="path628"
     style="fill:#40aeb4;fill-opacity:1"
     transform="translate(448,343)" /><path
     d="m 50.06958,369.70947 c 0.904715,-0.007 1.809431,-0.0134 2.741562,-0.0204 2.986186,-0.019 5.972147,-0.0229 8.958389,-0.0251 2.081193,-0.006 4.162385,-0.0131 6.243576,-0.0202 4.361945,-0.012 8.72381,-0.0157 13.08577,-0.0145 5.57851,2.1e-4 11.15651,-0.0271 16.734903,-0.0615 4.29895,-0.0223 8.59778,-0.0263 12.89679,-0.0252 2.05602,-0.002 4.11204,-0.0112 6.168,-0.0267 2.88158,-0.0197 5.76207,-0.0138 8.64367,-0.002 1.26352,-0.0169 1.26352,-0.0169 2.55258,-0.0341 6.80097,0.0718 12.00553,1.97892 17.14737,6.48474 0.53883,0.65098 1.07765,1.30196 1.63281,1.97266 0.5543,0.6484 1.10859,1.2968 1.67969,1.96484 3.62528,5.26156 3.74244,9.98334 3.73584,16.16724 0.007,0.90472 0.0134,1.80943 0.0204,2.74156 0.019,2.98619 0.0229,5.97215 0.0251,8.95839 0.006,2.08119 0.0131,4.16239 0.0202,6.24358 0.012,4.36194 0.0157,8.72381 0.0145,13.08577 -2.1e-4,5.57851 0.0271,11.15651 0.0615,16.7349 0.0223,4.29895 0.0263,8.59778 0.0252,12.89679 0.002,2.05601 0.0112,4.11204 0.0267,6.168 0.0197,2.88158 0.0138,5.76207 0.002,8.64367 0.0112,0.84235 0.0225,1.6847 0.0341,2.55258 -0.0718,6.80097 -1.97892,12.00553 -6.48474,17.14737 -0.65098,0.53883 -1.30196,1.07765 -1.97266,1.63281 -0.6484,0.5543 -1.2968,1.10859 -1.96484,1.67969 -5.26156,3.62528 -9.98334,3.74244 -16.16724,3.73584 -0.90472,0.007 -1.80943,0.0134 -2.74156,0.0204 -2.98619,0.019 -5.97215,0.0229 -8.95839,0.0251 -2.08119,0.006 -4.16239,0.0131 -6.24358,0.0202 -4.36194,0.012 -8.72381,0.0157 -13.085767,0.0145 -5.57851,-2.1e-4 -11.15651,0.0271 -16.734899,0.0615 -4.298953,0.0223 -8.597784,0.0263 -12.89679,0.0252 -2.056019,0.002 -4.112041,0.0112 -6.168003,0.0267 -2.881581,0.0197 -5.762067,0.0138 -8.643667,0.002 -0.842352,0.0112 -1.684704,0.0225 -2.552582,0.0341 -6.800969,-0.0718 -12.005537,-1.97892 -17.14737,-6.48474 -0.538828,-0.65098 -1.077656,-1.30196 -1.632812,-1.97266 -0.554297,-0.6484 -1.108594,-1.2968 -1.679688,-1.96484 -3.625281,-5.26156 -3.742446,-9.98334 -3.735839,-16.16724 -0.0067,-0.90472 -0.01343,-1.80943 -0.02036,-2.74156 -0.01897,-2.98619 -0.0229,-5.97215 -0.02506,-8.95839 -0.0064,-2.08119 -0.01316,-4.16239 -0.02017,-6.24358 -0.01197,-4.36194 -0.01568,-8.72381 -0.0145,-13.08577 2.03e-4,-5.57851 -0.02709,-11.15651 -0.06154,-16.7349 -0.02228,-4.29895 -0.02629,-8.59778 -0.02524,-12.89679 -0.0023,-2.05601 -0.01117,-4.11204 -0.02666,-6.168 -0.01968,-2.88158 -0.01381,-5.76207 -0.0018,-8.64367 -0.01124,-0.84235 -0.02248,-1.6847 -0.03406,-2.55258 0.07179,-6.80097 1.978919,-12.00553 6.484741,-17.14737 0.650976,-0.53883 1.301953,-1.07765 1.972656,-1.63281 0.648398,-0.5543 1.296797,-1.10859 1.964844,-1.67969 5.261557,-3.62528 9.98334,-3.74244 16.167236,-3.73584 z M 42,389 c -2.465635,3.99306 -2.290356,8.24995 -2.274658,12.81616 -0.0051,0.77138 -0.01022,1.54276 -0.01549,2.33751 -0.01386,2.54131 -0.01294,5.08234 -0.01064,7.62367 -0.0039,1.7721 -0.0082,3.5442 -0.01299,5.3163 -0.0075,3.71125 -0.0072,7.4224 -0.0019,11.13365 0.0058,4.74911 -0.01114,9.49783 -0.03434,14.24687 -0.01475,3.65892 -0.01561,7.31776 -0.01249,10.97671 -5.12e-4,1.75064 -0.0057,3.50129 -0.01581,5.2519 -0.01238,2.45082 -0.0056,4.90087 0.006,7.35167 -0.0076,0.71864 -0.01529,1.43727 -0.02316,2.17768 0.04828,4.64021 0.772129,7.91415 3.395477,11.76788 3.993056,2.46564 8.249954,2.29036 12.816162,2.27466 1.157067,0.008 1.157067,0.008 2.337509,0.0155 2.541304,0.0139 5.082336,0.0129 7.623673,0.0106 1.772101,0.004 3.5442,0.008 5.316299,0.013 3.711248,0.007 7.422401,0.007 11.133652,0.002 4.749106,-0.006 9.497822,0.0111 14.246866,0.0343 3.65892,0.0148 7.31776,0.0156 10.97671,0.0125 1.75064,5.1e-4 3.50129,0.006 5.2519,0.0158 2.45081,0.0124 4.90087,0.006 7.35167,-0.006 0.71864,0.008 1.43727,0.0153 2.17768,0.0232 4.64021,-0.0483 7.91415,-0.77213 11.76788,-3.39548 2.46564,-3.99306 2.29036,-8.24995 2.27466,-12.81616 0.008,-1.15707 0.008,-1.15707 0.0155,-2.33751 0.0139,-2.54131 0.0129,-5.08234 0.0106,-7.62367 0.004,-1.7721 0.008,-3.5442 0.013,-5.3163 0.007,-3.71125 0.007,-7.4224 0.002,-11.13365 -0.006,-4.74911 0.0111,-9.49783 0.0344,-14.24687 0.0147,-3.65892 0.0156,-7.31776 0.0125,-10.97671 5.1e-4,-1.75064 0.006,-3.50129 0.0158,-5.2519 0.0124,-2.45082 0.006,-4.90087 -0.006,-7.35167 0.008,-0.71864 0.0153,-1.43727 0.0232,-2.17768 C 136.3472,395.12767 135.62335,391.85373 133,388 c -3.99306,-2.46564 -8.24995,-2.29036 -12.81616,-2.27466 -1.15707,-0.008 -1.15707,-0.008 -2.33751,-0.0155 -2.5413,-0.0139 -5.08234,-0.0129 -7.62367,-0.0106 -1.7721,-0.004 -3.5442,-0.008 -5.3163,-0.013 -3.71125,-0.007 -7.4224,-0.007 -11.133655,-0.002 -4.749106,0.006 -9.497822,-0.0111 -14.246863,-0.0343 -3.658927,-0.0148 -7.31776,-0.0156 -10.976711,-0.0125 -1.750642,-5.1e-4 -3.50129,-0.006 -5.251903,-0.0158 -2.450813,-0.0124 -4.90087,-0.006 -7.351671,0.006 -1.077949,-0.0115 -1.077949,-0.0115 -2.177674,-0.0232 C 49.127671,385.6528 45.853733,386.37665 42,389 Z"
     fill="#000000"
     id="path630"
     style="fill:#ffcd2e;fill-opacity:1" /><path
     d="m 86.06958,27.709473 c 0.904715,-0.0067 1.809431,-0.01343 2.741562,-0.02035 2.986186,-0.01897 5.972148,-0.0229 8.958388,-0.02506 2.08119,-0.0064 4.16239,-0.01316 6.24358,-0.02017 4.36194,-0.01197 8.72381,-0.01568 13.08577,-0.0145 5.57851,2.03e-4 11.15651,-0.02709 16.7349,-0.06154 4.29895,-0.02228 8.59778,-0.02629 12.89679,-0.02524 2.05601,-0.0023 4.11204,-0.01117 6.168,-0.02666 2.88158,-0.01968 5.76207,-0.01381 8.64367,-0.0018 1.26352,-0.01686 1.26352,-0.01686 2.55258,-0.03406 6.80097,0.07179 12.00553,1.978919 17.14737,6.484741 0.53883,0.650976 1.07765,1.301953 1.63281,1.972656 0.5543,0.648398 1.10859,1.296797 1.67969,1.964844 3.62528,5.261557 3.74244,9.98334 3.73584,16.167236 0.007,0.904716 0.0134,1.809431 0.0204,2.741562 0.019,2.986186 0.0229,5.972147 0.0251,8.958389 0.006,2.081193 0.0131,4.162385 0.0202,6.243576 0.012,4.361945 0.0157,8.72381 0.0145,13.08577 -2.1e-4,5.57851 0.0271,11.156513 0.0615,16.734903 0.0223,4.29895 0.0263,8.59778 0.0252,12.89679 0.002,2.05601 0.0112,4.11204 0.0267,6.168 0.0197,2.88158 0.0138,5.76207 0.002,8.64367 0.0112,0.84235 0.0225,1.6847 0.0341,2.55258 -0.0718,6.80097 -1.97892,12.00553 -6.48474,17.14737 -0.65098,0.53883 -1.30196,1.07765 -1.97266,1.63281 -0.6484,0.5543 -1.2968,1.10859 -1.96484,1.67969 -5.26156,3.62528 -9.98334,3.74244 -16.16724,3.73584 -0.90472,0.007 -1.80943,0.0134 -2.74156,0.0204 -2.98619,0.019 -5.97215,0.0229 -8.95839,0.0251 -2.08119,0.006 -4.16239,0.0131 -6.24358,0.0202 -4.36194,0.012 -8.72381,0.0157 -13.08577,0.0145 -5.57851,-2.1e-4 -11.15651,0.0271 -16.7349,0.0615 -4.29895,0.0223 -8.59778,0.0263 -12.89679,0.0252 -2.05601,0.002 -4.11204,0.0112 -6.168,0.0267 -2.88158,0.0197 -5.762066,0.0138 -8.643666,0.002 -0.842352,0.0112 -1.684704,0.0225 -2.552582,0.0341 -6.800969,-0.0718 -12.005537,-1.97892 -17.14737,-6.48474 -0.538828,-0.65098 -1.077656,-1.30196 -1.632812,-1.97266 -0.554297,-0.6484 -1.108594,-1.2968 -1.679688,-1.96484 -3.625281,-5.26156 -3.742446,-9.98334 -3.735839,-16.16724 -0.0067,-0.90472 -0.01344,-1.80943 -0.02036,-2.74156 -0.01897,-2.98619 -0.0229,-5.97215 -0.02506,-8.95839 -0.0064,-2.08119 -0.01316,-4.16239 -0.02017,-6.24358 -0.01197,-4.36194 -0.01568,-8.72381 -0.01449,-13.08577 2.03e-4,-5.578507 -0.02709,-11.156507 -0.06155,-16.734896 -0.02228,-4.298953 -0.02629,-8.597784 -0.02524,-12.89679 -0.0024,-2.056019 -0.01117,-4.112041 -0.02667,-6.168003 -0.01968,-2.881581 -0.01381,-5.762067 -0.0018,-8.643667 -0.01124,-0.842352 -0.02248,-1.684704 -0.03406,-2.552582 0.07179,-6.800969 1.978919,-12.005537 6.484741,-17.14737 0.650976,-0.538828 1.301953,-1.077656 1.972656,-1.632812 0.648398,-0.554297 1.296797,-1.108594 1.964844,-1.679688 5.261557,-3.625281 9.98334,-3.742445 16.167236,-3.735839 z M 78,47 c -2.465635,3.993056 -2.290356,8.249954 -2.274658,12.816162 -0.0051,0.771378 -0.01022,1.542756 -0.01549,2.337509 -0.01386,2.541304 -0.01294,5.082336 -0.01064,7.623673 -0.0039,1.772101 -0.0082,3.5442 -0.01299,5.316299 -0.0075,3.711248 -0.0072,7.422401 -0.0019,11.133652 0.0058,4.749106 -0.01114,9.497825 -0.03435,14.246865 -0.01475,3.65893 -0.01561,7.31776 -0.01249,10.97671 -5.12e-4,1.75064 -0.0057,3.50129 -0.01581,5.2519 -0.01238,2.45082 -0.0056,4.90087 0.006,7.35167 -0.0076,0.71864 -0.01529,1.43727 -0.02316,2.17768 0.04828,4.64021 0.772129,7.91415 3.395477,11.76788 3.993056,2.46564 8.249954,2.29036 12.816162,2.27466 1.157067,0.008 1.157067,0.008 2.337509,0.0155 2.5413,0.0139 5.08234,0.0129 7.62367,0.0106 1.7721,0.004 3.5442,0.008 5.3163,0.013 3.71125,0.007 7.4224,0.007 11.13365,0.002 4.74911,-0.006 9.49783,0.0111 14.24687,0.0344 3.65892,0.0147 7.31776,0.0156 10.97671,0.0125 1.75064,5.1e-4 3.50129,0.006 5.2519,0.0158 2.45082,0.0124 4.90087,0.006 7.35167,-0.006 0.71864,0.008 1.43727,0.0153 2.17768,0.0232 4.64021,-0.0483 7.91415,-0.77213 11.76788,-3.39548 2.46564,-3.99306 2.29036,-8.24995 2.27466,-12.81616 0.008,-1.15707 0.008,-1.15707 0.0155,-2.33751 0.0139,-2.54131 0.0129,-5.08234 0.0106,-7.62367 0.004,-1.7721 0.008,-3.5442 0.013,-5.3163 0.007,-3.71125 0.007,-7.4224 0.002,-11.13365 -0.006,-4.749111 0.0111,-9.497827 0.0343,-14.246868 0.0147,-3.658927 0.0156,-7.31776 0.0125,-10.976711 5.1e-4,-1.750642 0.006,-3.50129 0.0158,-5.251903 0.0124,-2.450813 0.006,-4.90087 -0.006,-7.351671 0.008,-0.718633 0.0153,-1.437265 0.0232,-2.177674 C 172.3472,53.127671 171.62335,49.853733 169,46 c -3.99306,-2.465635 -8.24995,-2.290356 -12.81616,-2.274658 -1.15707,-0.0077 -1.15707,-0.0077 -2.33751,-0.01549 -2.54131,-0.01386 -5.08234,-0.01294 -7.62367,-0.01064 -1.7721,-0.0039 -3.5442,-0.0082 -5.3163,-0.01299 -3.71125,-0.0075 -7.4224,-0.0072 -11.13365,-0.0019 -4.74911,0.0058 -9.49783,-0.01114 -14.24687,-0.03434 -3.65892,-0.01475 -7.31776,-0.01561 -10.97671,-0.01249 -1.75064,-5.12e-4 -3.50129,-0.0057 -5.2519,-0.01581 -2.45082,-0.01238 -4.90087,-0.0056 -7.351673,0.006 -1.077949,-0.01147 -1.077949,-0.01147 -2.177674,-0.02316 C 85.127671,43.652802 81.853733,44.376652 78,47 Z"
     fill="#000000"
     id="path634"
     style="fill:#f44133;fill-opacity:1" /><path
     d="M0 0 C4.03874694 1.79907818 5.45195281 3.82438349 7.75 7.625 C8.36359375 8.62789062 8.9771875 9.63078125 9.609375 10.6640625 C10.06828125 11.43492188 10.5271875 12.20578125 11 13 C6.76639855 17.64747695 1.94215161 20.89925748 -3.3125 24.3125 C-4.14845703 24.86228516 -4.98441406 25.41207031 -5.84570312 25.97851562 C-7.89371891 27.32435457 -9.9451401 28.66464405 -12 30 C-11.1970752 30.0093457 -10.39415039 30.01869141 -9.56689453 30.02832031 C52.44805631 30.92772668 105.65483162 50.27449747 151 93 C151.78246094 93.72832031 152.56492187 94.45664063 153.37109375 95.20703125 C159.98585599 101.56239105 165.50359769 108.68388262 171 116 C171.43489746 116.57411621 171.86979492 117.14823242 172.31787109 117.73974609 C177.38593471 124.46833568 181.9871182 131.38270379 186.1875 138.6875 C186.58662598 139.37118652 186.98575195 140.05487305 187.39697266 140.75927734 C188.34808645 142.46219537 189.18434557 144.22820568 190 146 C189 149 189 149 186.3828125 150.640625 C184.77019531 151.43726563 184.77019531 151.43726563 183.125 152.25 C181.52011719 153.06210937 181.52011719 153.06210937 179.8828125 153.890625 C177 155 177 155 174 154 C172.42128822 151.50461686 170.97876904 149.02269048 169.5625 146.4375 C162.23195838 133.55281545 153.45778696 122.11851517 143.1796875 111.453125 C141 109 141 109 139.9453125 106.796875 C139.14333192 104.84404867 139.14333192 104.84404867 137.14355469 104.08911133 C134.82892239 102.91307776 133.52072822 101.66809632 131.7578125 99.77734375 C128.06435348 95.97872238 124.09802406 92.75206592 119.875 89.5625 C119.12927734 88.99756836 118.38355469 88.43263672 117.61523438 87.85058594 C111.30271903 83.1256655 104.87049208 78.88471748 98 75 C97.07380859 74.46729492 97.07380859 74.46729492 96.12890625 73.92382812 C63.00946682 55.00311867 25.91301925 47.5024873 -12 48 C-11.3387915 48.4439209 -10.67758301 48.8878418 -9.99633789 49.34521484 C-7.01521795 51.3504713 -4.0388229 53.36263115 -1.0625 55.375 C-0.02158203 56.07367188 1.01933594 56.77234375 2.09179688 57.4921875 C3.57583008 58.49765625 3.57583008 58.49765625 5.08984375 59.5234375 C6.46450806 60.450354 6.46450806 60.450354 7.86694336 61.39599609 C10 63 10 63 11 65 C9.76725921 67.010684 8.51323373 69.00833222 7.25 71 C6.55390625 72.11375 5.8578125 73.2275 5.140625 74.375 C4.43421875 75.24125 3.7278125 76.1075 3 77 C-1.20778982 77 -1.97937948 76.68041368 -5.30273438 74.46484375 C-6.14461304 73.91006348 -6.9864917 73.3552832 -7.85388184 72.78369141 C-8.75803833 72.17444824 -9.66219482 71.56520508 -10.59375 70.9375 C-12.00750916 70.00043213 -12.00750916 70.00043213 -13.4498291 69.04443359 C-16.47233603 67.0381649 -19.48619312 65.01930835 -22.5 63 C-24.49944324 61.66973571 -26.49943745 60.34029915 -28.5 59.01171875 C-32.32145739 56.47231298 -36.13749655 53.92508621 -39.94921875 51.37109375 C-42.98020638 49.34196415 -46.01945609 47.32877648 -49.08203125 45.34765625 C-50.17902344 44.63480469 -51.27601563 43.92195313 -52.40625 43.1875 C-53.31697266 42.60355469 -54.22769531 42.01960938 -55.16601562 41.41796875 C-55.77123047 40.95003906 -56.37644531 40.48210938 -57 40 C-57 39.34 -57 38.68 -57 38 C-55.41706848 36.71910095 -55.41706848 36.71910095 -53.16723633 35.25366211 C-51.90880669 34.42655983 -51.90880669 34.42655983 -50.62495422 33.58274841 C-49.24245735 32.6890731 -49.24245735 32.6890731 -47.83203125 31.77734375 C-46.88623703 31.1578334 -45.94044281 30.53832306 -44.96598816 29.90003967 C-41.91906711 27.90594536 -38.86606958 25.92139519 -35.8125 23.9375 C-31.83807563 21.34515027 -27.86608189 18.74909338 -23.89453125 16.15234375 C-22.94031281 15.52935394 -21.98609436 14.90636414 -21.00296021 14.26449585 C-13.91641899 9.62815048 -6.91475317 4.88902732 0 0 Z "
     fill="#000000"
     id="path636"
     style="fill:#f44133;fill-opacity:1.0"
     transform="translate(258,9)" /><path
     d="M0 0 C2.31853933 0.92442407 4.62902749 1.86353608 6.9375 2.8125 C7.59685547 3.07353516 8.25621094 3.33457031 8.93554688 3.60351562 C10.66028184 4.319944 12.3349412 5.1540925 14 6 C15.15569565 9.46708694 14.86044927 10.00632911 13.5234375 13.25390625 C13.01538574 14.5210144 13.01538574 14.5210144 12.49707031 15.8137207 C12.12678711 16.72081787 11.75650391 17.62791504 11.375 18.5625 C7.57172799 28.25687153 4.33358779 37.84920318 2 48 C1.80390137 48.82612793 1.60780273 49.65225586 1.40576172 50.50341797 C-7.00079889 87.3534355 -1.7782609 123.6652173 10 159 C12.97 147.12 15.94 135.24 19 123 C23.89906839 122.02018632 25.68710501 122.16678709 30.3125 123.4375 C31.38113281 123.72496094 32.44976562 124.01242187 33.55078125 124.30859375 C34.35902344 124.53675781 35.16726562 124.76492188 36 125 C35.35412983 133.31607989 33.39548913 141.24303841 31.40234375 149.31640625 C31.04455888 150.78315994 30.68727235 152.25003528 30.33045959 153.71702576 C29.39670854 157.55026653 28.45626131 161.38183284 27.51434326 165.21307373 C26.55168509 169.13388647 25.59546109 173.05626739 24.63867188 176.97851562 C22.76535859 184.65388074 20.88495834 192.32748648 19 200 C12.418128 197.84487747 12.418128 197.84487747 9.42578125 196.14453125 C8.44520752 195.59333618 8.44520752 195.59333618 7.44482422 195.03100586 C6.38932373 194.42784546 6.38932373 194.42784546 5.3125 193.8125 C3.71765765 192.91369025 2.1225906 192.01527914 0.52734375 191.1171875 C-0.34680176 190.6231543 -1.22094727 190.12912109 -2.12158203 189.62011719 C-7.02247511 186.86165014 -11.94419169 184.14071261 -16.86303711 181.41442871 C-27.2635674 175.64780519 -37.64647848 169.8506117 -48 164 C-47.42176904 159.93774452 -46.10882263 157.15237654 -43.9375 153.6875 C-43.38964844 152.80449219 -42.84179688 151.92148437 -42.27734375 151.01171875 C-41.85582031 150.34785156 -41.43429688 149.68398438 -41 149 C-36.98350349 149.60229224 -33.98863937 150.88583052 -30.4375 152.8359375 C-28.87128906 153.69058594 -28.87128906 153.69058594 -27.2734375 154.5625 C-26.19320312 155.160625 -25.11296875 155.75875 -24 156.375 C-22.91976562 156.96539062 -21.83953125 157.55578125 -20.7265625 158.1640625 C-16.10084978 160.69963836 -11.51015207 163.2630089 -7 166 C-7.22139648 165.31711914 -7.44279297 164.63423828 -7.67089844 163.93066406 C-14.08059956 144.02123861 -20.08555001 124.06433862 -20.203125 102.98828125 C-20.21018463 102.14621124 -20.21724426 101.30414124 -20.22451782 100.43655396 C-20.45073698 65.5236658 -20.45073698 65.5236658 -17 50 C-16.80132324 49.06559082 -16.60264648 48.13118164 -16.39794922 47.16845703 C-12.9797529 31.39354502 -8.9888706 13.66419648 0 0 Z "
     fill="#000000"
     id="path640"
     style="fill:#ffcd2e;fill-opacity:1.0"
     transform="translate(60,164)" /><g
     id="g21743"
     transform="translate(0.84605807,-6.7683785)"><path
       d="m 402.87792,198.55132 c 0.90472,-0.007 1.80943,-0.0134 2.74156,-0.0204 2.98619,-0.019 5.97215,-0.0229 8.95839,-0.0251 2.08119,-0.006 4.16239,-0.0131 6.24358,-0.0202 4.36194,-0.012 8.72381,-0.0157 13.08577,-0.0145 5.57851,2.1e-4 11.15651,-0.0271 16.7349,-0.0615 4.29895,-0.0223 8.59778,-0.0263 12.89679,-0.0252 2.05601,-0.002 4.11204,-0.0112 6.168,-0.0267 2.88158,-0.0197 5.76207,-0.0138 8.64367,-0.002 1.26352,-0.0169 1.26352,-0.0169 2.55258,-0.0341 6.80097,0.0718 12.00553,1.97892 17.14737,6.48474 0.53883,0.65098 1.07765,1.30196 1.63281,1.97266 0.5543,0.6484 1.10859,1.2968 1.67969,1.96484 3.62528,5.26156 3.74244,9.98334 3.73584,16.16724 0.007,0.90472 0.0134,1.80943 0.0204,2.74156 0.019,2.98619 0.0229,5.97215 0.0251,8.95839 0.006,2.08119 0.0131,4.16239 0.0202,6.24358 0.012,4.36194 0.0157,8.72381 0.0145,13.08577 -2.1e-4,5.57851 0.0271,11.15651 0.0615,16.7349 0.0223,4.29895 0.0263,8.59778 0.0252,12.89679 0.002,2.05601 0.0112,4.11204 0.0267,6.168 0.0197,2.88158 0.0138,5.76207 0.002,8.64367 0.0112,0.84235 0.0225,1.6847 0.0341,2.55258 -0.0718,6.80097 -1.97892,12.00553 -6.48473,17.14737 -0.65099,0.53883 -1.30197,1.07765 -1.97267,1.63281 -0.64839,0.5543 -1.2968,1.10859 -1.96483,1.67969 -5.26156,3.62528 -9.98334,3.74244 -16.16724,3.73584 -0.90472,0.007 -1.80944,0.0134 -2.74156,0.0204 -2.9862,0.019 -5.97215,0.0229 -8.95839,0.0251 -2.08119,0.006 -4.1624,0.0131 -6.24359,0.0202 -4.36194,0.012 -8.72381,0.0157 -13.08577,0.0145 -5.57851,-2.1e-4 -11.15651,0.0271 -16.7349,0.0615 -4.29894,0.0223 -8.59778,0.0263 -12.89679,0.0252 -2.05601,0.002 -4.11203,0.0112 -6.168,0.0267 -2.88158,0.0197 -5.76207,0.0138 -8.64367,0.002 -0.84235,0.0112 -1.6847,0.0225 -2.55257,0.0341 -6.80097,-0.0718 -12.00554,-1.97893 -17.14738,-6.48474 -0.53883,-0.65098 -1.07765,-1.30196 -1.63281,-1.97267 -0.5543,-0.6484 -1.10859,-1.2968 -1.67969,-1.96483 -3.62527,-5.26157 -3.74244,-9.98334 -3.73584,-16.16724 -0.007,-0.90472 -0.0134,-1.80943 -0.0204,-2.74157 -0.019,-2.98618 -0.0229,-5.97214 -0.0251,-8.95839 -0.006,-2.08119 -0.0131,-4.16238 -0.0202,-6.24357 -0.012,-4.36194 -0.0157,-8.72382 -0.0145,-13.08578 2e-4,-5.57851 -0.0271,-11.15651 -0.0615,-16.7349 -0.0223,-4.29895 -0.0263,-8.59778 -0.0252,-12.89679 -0.002,-2.05601 -0.0112,-4.11204 -0.0267,-6.168 -0.0197,-2.88158 -0.0138,-5.76207 -0.002,-8.64367 -0.0112,-0.84235 -0.0225,-1.6847 -0.0341,-2.55258 0.0718,-6.80097 1.97892,-12.00553 6.48474,-17.14737 0.65098,-0.53883 1.30196,-1.07765 1.97266,-1.63281 0.6484,-0.5543 1.2968,-1.10859 1.96484,-1.67969 5.26156,-3.62528 9.98334,-3.74244 16.16724,-3.73584 z m -8.06958,19.29053 c -2.46564,3.99306 -2.29036,8.24995 -2.27466,12.81616 -0.005,0.77138 -0.0102,1.54276 -0.0155,2.33751 -0.0139,2.54131 -0.0129,5.08234 -0.0106,7.62367 -0.004,1.7721 -0.008,3.5442 -0.013,5.3163 -0.007,3.71125 -0.007,7.42241 -0.002,11.13365 0.006,4.74912 -0.0111,9.49783 -0.0343,14.24687 -0.0148,3.65892 -0.0156,7.31777 -0.0125,10.97672 -5.1e-4,1.75063 -0.006,3.50128 -0.0158,5.25189 -0.0124,2.45083 -0.006,4.90087 0.006,7.35167 -0.008,0.71864 -0.0153,1.43728 -0.0232,2.17769 0.0483,4.64021 0.77213,7.91414 3.39548,11.76787 3.99306,2.46565 8.24995,2.29036 12.81616,2.27466 1.15707,0.008 1.15707,0.008 2.33751,0.0155 2.54131,0.0139 5.08234,0.0129 7.62367,0.0106 1.7721,0.004 3.5442,0.008 5.3163,0.013 3.71125,0.007 7.4224,0.007 11.13365,0.002 4.74911,-0.006 9.49783,0.0111 14.24687,0.0343 3.65892,0.0148 7.31776,0.0156 10.97671,0.0125 1.75064,5.1e-4 3.50129,0.006 5.2519,0.0158 2.45082,0.0124 4.90087,0.006 7.35167,-0.006 0.71864,0.008 1.43727,0.0153 2.17768,0.0232 4.64021,-0.0483 7.91415,-0.77213 11.76788,-3.39548 2.46564,-3.99306 2.29036,-8.24995 2.27466,-12.81616 0.008,-1.15707 0.008,-1.15707 0.0155,-2.33751 0.0139,-2.54131 0.0129,-5.08234 0.0106,-7.62367 0.004,-1.7721 0.008,-3.5442 0.013,-5.3163 0.007,-3.71125 0.007,-7.4224 0.002,-11.13365 -0.006,-4.74911 0.0111,-9.49783 0.0343,-14.24687 0.0148,-3.65892 0.0156,-7.31776 0.0125,-10.97671 5.1e-4,-1.75064 0.006,-3.50129 0.0158,-5.2519 0.0124,-2.45082 0.006,-4.90087 -0.006,-7.35167 0.008,-0.71864 0.0153,-1.43727 0.0232,-2.17768 -0.0483,-4.64029 -0.77214,-7.91423 -3.39549,-11.76796 -3.99306,-2.46564 -8.24995,-2.29036 -12.81616,-2.27466 -1.15707,-0.008 -1.15707,-0.008 -2.33751,-0.0155 -2.54131,-0.0139 -5.08234,-0.0129 -7.62367,-0.0106 -1.7721,-0.004 -3.5442,-0.008 -5.3163,-0.013 -3.71125,-0.007 -7.4224,-0.007 -11.13365,-0.002 -4.74911,0.006 -9.49783,-0.0111 -14.24687,-0.0343 -3.65892,-0.0147 -7.31776,-0.0156 -10.97671,-0.0125 -1.75064,-5.1e-4 -3.50129,-0.006 -5.2519,-0.0158 -2.45082,-0.0124 -4.90087,-0.006 -7.35167,0.006 -1.07795,-0.0115 -1.07795,-0.0115 -2.17768,-0.0232 -4.64021,0.0484 -7.91415,0.77221 -11.76788,3.39556 z"
       fill="#000000"
       id="path632"
       style="fill:#40aeb4;fill-opacity:1" /><path
       d="m 465.80851,229.84169 c 3.63303,1.69586 5.94549,3.73801 8.75,6.625 0.79922,0.81727 1.59844,1.63453 2.42187,2.47656 0.60329,0.62649 1.20657,1.25297 1.82813,1.89844 -1.57877,3.82395 -3.99502,6.23642 -6.90869,9.13574 -0.49773,0.49802 -0.99545,0.99604 -1.50826,1.50914 -1.64017,1.63879 -3.28731,3.27038 -4.93461,4.902 -1.14101,1.13728 -2.28158,2.275 -3.42172,3.41314 -2.99751,2.98988 -6.00097,5.9737 -9.00571,8.9563 -3.06688,3.0464 -6.12808,6.09848 -9.18976,9.15009 -6.00488,5.98345 -12.01606,11.96051 -18.03125,17.93359 -3.52345,-1.65862 -5.79902,-3.56657 -8.54687,-6.35156 -0.84434,-0.85078 -1.68868,-1.70156 -2.5586,-2.57813 -0.87269,-0.88945 -1.74539,-1.7789 -2.64453,-2.69531 -1.33224,-1.34578 -1.33224,-1.34578 -2.6914,-2.71875 -2.19077,-2.21432 -4.37673,-4.43317 -6.5586,-6.65625 1.69586,-3.63303 3.73801,-5.94549 6.625,-8.75 0.81727,-0.79922 1.63453,-1.59844 2.47656,-2.42187 0.62649,-0.60328 1.25297,-1.20656 1.89844,-1.82813 4.29379,1.92287 6.77154,4.62479 10,8 3.27196,-1.43259 5.43204,-3.18825 7.94238,-5.71533 0.76049,-0.76064 1.52098,-1.52127 2.30451,-2.30496 0.81056,-0.82088 1.62111,-1.64176 2.45624,-2.48752 0.83779,-0.84062 1.67558,-1.68124 2.53875,-2.54733 2.6741,-2.6853 5.34117,-5.37746 8.00812,-8.06986 1.81204,-1.82207 3.62453,-3.64369 5.4375,-5.46484 4.44278,-4.46483 8.8798,-8.93532 13.3125,-13.41016 z"
       fill="#000000"
       id="path214"
       style="fill:#40aeb4;fill-opacity:1" /></g><ellipse
     style="opacity:1;fill:#f44133;fill-opacity:1;stroke:#030502;stroke-width:0.642632;stroke-opacity:1"
     id="path2599"
     cx="124.00031"
     cy="92.00016"
     rx="42.866371"
     ry="42.866364" /><rect
     style="opacity:1;fill:#ffcd2e;fill-opacity:1"
     id="rect2653"
     width="76.789085"
     height="76.789085"
     x="49.605778"
     y="395.60529"
     ry="16.152689" /><path
     sodipodi:type="star"
     style="opacity:1;fill:none;fill-opacity:1;fill-rule:evenodd;stroke:#3365e0;stroke-width:50.2999939;stroke-linecap:round;stroke-linejoin:round;stroke-dasharray:none;stroke-opacity:1;paint-order:normal;stroke-dashoffset:0"
     id="path1986"
     inkscape:flatsided="true"
     sodipodi:sides="6"
     sodipodi:cx="178.79846"
     sodipodi:cy="225.6039"
     sodipodi:r1="67.326126"
     sodipodi:r2="57.748703"
     sodipodi:arg1="1.0368426"
     sodipodi:arg2="1.5604413"
     inkscape:rounded="0"
     inkscape:randomized="0"
     d="m 213.06347,283.55833 -67.32252,0.69715 -34.265,-57.95444 33.05751,-58.65158 67.32251,-0.69715 34.26501,57.95444 z"
     transform="translate(68.953044,34.395938)" /></svg>
